<svg xmlns="http://www.w3.org/2000/svg" viewBox="0 0 180 180" role="img" aria-label="Oakmont Digital Markets Group logo">
  <defs>
    <linearGradient id="oakmont-shield" x1="22" y1="16" x2="158" y2="170" gradientUnits="userSpaceOnUse">
      <stop offset="0%" stop-color="#0f1b30"/>
      <stop offset="100%" stop-color="#05101f"/>
    </linearGradient>
    <linearGradient id="oakmont-gold" x1="28" y1="22" x2="152" y2="164" gradientUnits="userSpaceOnUse">
      <stop offset="0%" stop-color="#f7e7a3"/>
      <stop offset="45%" stop-color="#d4a63f"/>
      <stop offset="100%" stop-color="#8d641d"/>
    </linearGradient>
  </defs>
  <rect width="180" height="180" rx="40" fill="#07111f"/>
  <path d="M90 14 L155 34 V88 C155 128 127 156 90 167 C53 156 25 128 25 88 V34 Z" fill="url(#oakmont-shield)" stroke="url(#oakmont-gold)" stroke-width="4.5"/>
  <path d="M90 39 C79 49 73 58 73 70 C73 73 76 73 77.5 71.2 C80 75.5 84.5 79 90 79 C95.5 79 100 75.5 102.5 71.2 C104 73 107 73 107 70 C107 58 101 49 90 39 Z" fill="url(#oakmont-gold)"/>
  <circle cx="90" cy="86" r="4" fill="#07111f"/>
  <circle cx="90" cy="113" r="21" fill="none" stroke="url(#oakmont-gold)" stroke-width="6"/>
  <path d="M58 145 L78 137 L94 142 L110 130 L130 134" stroke="url(#oakmont-gold)" stroke-width="4.5" stroke-linecap="round" stroke-linejoin="round" fill="none"/>
  <text x="90" y="115" text-anchor="middle" font-family="Georgia, 'Times New Roman', serif" font-weight="700" font-size="26" fill="#f7e7a3" dominant-baseline="middle">O</text>
</svg>
