<svg xmlns="http://www.w3.org/2000/svg" viewBox="0 0 64 64" role="img" aria-label="Oakmont Digital Markets Group logo">
  <defs>
    <linearGradient id="oakmont-shield" x1="8" y1="6" x2="56" y2="60" gradientUnits="userSpaceOnUse">
      <stop offset="0%" stop-color="#0f1b30"/>
      <stop offset="100%" stop-color="#05101f"/>
    </linearGradient>
    <linearGradient id="oakmont-gold" x1="10" y1="8" x2="54" y2="58" gradientUnits="userSpaceOnUse">
      <stop offset="0%" stop-color="#f7e7a3"/>
      <stop offset="45%" stop-color="#d4a63f"/>
      <stop offset="100%" stop-color="#8d641d"/>
    </linearGradient>
  </defs>
  <rect width="64" height="64" rx="14" fill="#07111f"/>
  <path d="M32 5 L55 12 V31 C55 45 45 55 32 59 C19 55 9 45 9 31 V12 Z" fill="url(#oakmont-shield)" stroke="url(#oakmont-gold)" stroke-width="1.6"/>
  <path d="M32 14 C28 18 26 21 26 25 C26 26 27 26 27.5 25.4 C28.5 27 30 28 32 28 C34 28 35.5 27 36.5 25.4 C37 26 38 26 38 25 C38 21 36 18 32 14 Z" fill="url(#oakmont-gold)"/>
  <circle cx="32" cy="30.6" r="1.4" fill="#07111f"/>
  <circle cx="32" cy="40" r="7.5" fill="none" stroke="url(#oakmont-gold)" stroke-width="2.2"/>
  <path d="M20 52 L26 49 L31 51 L37 46 L44 48" stroke="url(#oakmont-gold)" stroke-width="1.6" stroke-linecap="round" stroke-linejoin="round" fill="none"/>
  <text x="32" y="40.7" text-anchor="middle" font-family="Georgia, 'Times New Roman', serif" font-weight="700" font-size="9" fill="#f7e7a3" dominant-baseline="middle">O</text>
</svg>
